<svg width="698" height="629" viewBox="0 0 698 629" fill="none" xmlns="http://www.w3.org/2000/svg">
<path d="M620.587 1.89816C663.511 1.74359 697.921 37.3556 696.277 80.2307C694.721 120.824 661.289 152.897 620.649 152.784L262.045 151.788C230.541 151.701 184.276 156.274 164.987 181.173C124.821 233.02 138.695 337.543 134.858 329.05C131.145 320.831 29.5788 149.698 23.0102 138.632C22.7816 138.247 22.5612 137.88 22.3293 137.496L19.27 132.441C11.511 119.619 5.59272 105.771 1.68853 91.3029L1.1376 89.2613L0.931528 88.1456C-1.02233 77.5669 0.212484 66.6465 4.47921 56.7706C7.36901 48.1841 11.8021 40.1968 17.5606 33.2013L18.6373 31.8932C30.6518 18.5455 46.569 9.32226 64.1272 5.53402L68.2333 4.6481C70.6178 4.13364 73.0495 3.86987 75.4888 3.86109L620.587 1.89816Z" fill="url(#paint0_linear_39_74)"/>
<path d="M418.063 590.101C397.43 626.605 349 628.968 314.629 618.464C278.409 597.684 265.91 551.48 286.718 515.285L466.689 202.242C482.389 174.933 501.345 132.511 489.26 103.423C464.1 42.8624 375.895 2.77931 375.895 2.77931C384 3 578.046 0.320528 596.883 0.0187694C597.961 0.00151375 598.899 -0.00277312 599.976 0.00158353L620.145 0.0831449C629.827 0.122299 639.42 1.9363 648.447 5.4351C652.278 6.91974 655.987 8.70015 659.541 10.7602L659.869 10.9502C666.143 14.5867 671.919 19.0198 677.055 24.1389L681.232 28.3036C686.435 34.4034 690.561 41.3444 693.433 48.8289L693.967 50.2223C700.666 70.0176 698.966 91.6913 689.262 110.201L688.406 111.834L418.063 590.101Z" fill="url(#paint1_linear_39_74)"/>
<path d="M10.2891 117.32C-10.826 81.0923 1.60561 34.6071 37.9885 13.7444C74.2137 -7.02791 120.426 5.5015 141.187 41.7239L320.739 355.007C336.402 382.337 363.476 420.103 394.698 424.352C459.699 433.199 543.523 370.204 538.083 377.772C532.963 384.896 438.98 554.998 427.85 574.954C427.122 576.26 426.404 577.503 425.64 578.789L419.302 589.442C414.882 596.872 409.333 603.569 402.854 609.294L395.249 615.773C386.644 621.473 377.02 625.462 366.904 627.522L364.87 627.936L364.232 628.032C355.316 629.378 346.244 629.32 337.345 627.86C316.868 623.652 299.007 611.247 287.917 593.532L286.939 591.969L10.2891 117.32Z" fill="url(#paint2_linear_39_74)"/>
<defs>
<linearGradient id="paint0_linear_39_74" x1="160.647" y1="0" x2="160.647" y2="624.657" gradientUnits="userSpaceOnUse">
<stop offset="0.03125" stop-color="#072E3B"/>
<stop offset="0.505208" stop-color="#17A0CC"/>
</linearGradient>
<linearGradient id="paint1_linear_39_74" x1="160.586" y1="0" x2="160.586" y2="626.594" gradientUnits="userSpaceOnUse">
<stop stop-color="#18A9D7"/>
<stop offset="0.869792" stop-color="#071B21"/>
</linearGradient>
<linearGradient id="paint2_linear_39_74" x1="37.7861" y1="13.8606" x2="384.059" y2="617.733" gradientUnits="userSpaceOnUse">
<stop stop-color="#0E4C60"/>
<stop offset="1" stop-color="#18A9D7"/>
</linearGradient>
</defs>
</svg>
