<svg width="555" height="170" viewBox="0 0 555 170" fill="none" xmlns="http://www.w3.org/2000/svg">
<path d="M206.737 121.417H198.036L175.844 62.1345H184.677L198.739 101.773C199.647 104.293 200.878 108.38 202.43 114.034C203.602 109.669 204.833 105.582 206.122 101.773L220.096 62.1345H228.929L206.737 121.417ZM243.607 99.3122C243.607 104.644 244.779 108.819 247.123 111.837C249.496 114.854 252.733 116.363 256.835 116.363C259.852 116.363 262.489 115.718 264.745 114.429C267.03 113.111 268.553 111.324 269.315 109.068L276.259 111.046C274.969 114.678 272.596 117.462 269.139 119.395C265.712 121.329 261.61 122.296 256.835 122.296C249.921 122.296 244.603 120.142 240.883 115.836C237.162 111.529 235.302 105.362 235.302 97.3347C235.302 89.5124 237.118 83.5065 240.751 79.3171C244.413 75.0983 249.686 72.989 256.571 72.989C263.456 72.989 268.671 75.0837 272.216 79.2731C275.76 83.4626 277.533 89.7907 277.533 98.2575V99.3122H243.607ZM256.659 78.8337C252.733 78.8337 249.628 80.1227 247.343 82.7009C245.057 85.2497 243.842 88.7653 243.695 93.2477H269.359C268.539 83.6384 264.305 78.8337 256.659 78.8337ZM252.001 68.6384V67.7595L261.976 57.2565H270.634V58.5309L257.45 68.6384H252.001ZM329.432 81.0749C326.151 80.5182 323.046 80.2399 320.116 80.2399C315.399 80.2399 311.591 82.0124 308.69 85.5573C305.79 89.1022 304.34 93.614 304.34 99.0925V121.417H296.429V90.611C296.429 88.3845 296.224 85.7624 295.814 82.7448C295.433 79.7272 294.877 76.7682 294.144 73.8679H301.659C302.831 77.9108 303.534 81.5729 303.768 84.8542H303.988C305.453 81.5729 306.888 79.1706 308.295 77.6472C309.701 76.0944 311.371 74.9372 313.304 74.1755C315.238 73.3845 317.596 72.989 320.38 72.989C323.427 72.989 326.444 73.238 329.432 73.736V81.0749ZM345.912 80.1081V73.8679H353.383L355.931 61.4753H361.205V73.8679H380.189V80.1081H361.205V108.76C361.205 111.075 361.82 112.789 363.051 113.902C364.31 115.015 366.361 115.572 369.203 115.572C373.129 115.572 377.479 115.074 382.255 114.078V120.098C377.303 121.446 372.396 122.12 367.533 122.12C362.787 122.12 359.227 121.124 356.854 119.132C354.481 117.11 353.295 113.931 353.295 109.595V80.1081H345.912ZM424.354 115.176H441.053V121.417H397.899V115.176H416.444V80.1081H402.426V73.8679H424.354V115.176ZM415.565 64.6393V56.2018H424.354V64.6393H415.565ZM451.381 97.5983C451.381 89.6882 453.27 83.6091 457.05 79.361C460.829 75.113 466.293 72.989 473.441 72.989C478.773 72.989 483.168 74.278 486.625 76.8561C490.082 79.405 492.22 82.8474 493.041 87.1833L484.603 87.7985C484.135 85.1325 482.963 83.0378 481.088 81.5143C479.213 79.9616 476.547 79.1852 473.09 79.1852C468.461 79.1852 465.062 80.6208 462.894 83.4919C460.756 86.363 459.686 91.0065 459.686 97.4225C459.686 103.926 460.756 108.687 462.894 111.705C465.062 114.693 468.446 116.187 473.046 116.187C476.21 116.187 478.832 115.411 480.912 113.858C482.992 112.305 484.281 109.932 484.779 106.739L493.129 107.266C492.748 110.079 491.678 112.642 489.921 114.957C488.192 117.242 485.892 119.044 483.021 120.362C480.15 121.651 476.942 122.296 473.397 122.296C466.219 122.296 460.756 120.186 457.006 115.967C453.256 111.749 451.381 105.626 451.381 97.5983ZM513.871 99.3122C513.871 104.644 515.043 108.819 517.386 111.837C519.76 114.854 522.997 116.363 527.098 116.363C530.116 116.363 532.753 115.718 535.009 114.429C537.294 113.111 538.817 111.324 539.579 109.068L546.522 111.046C545.233 114.678 542.86 117.462 539.403 119.395C535.975 121.329 531.874 122.296 527.098 122.296C520.184 122.296 514.867 120.142 511.146 115.836C507.426 111.529 505.565 105.362 505.565 97.3347C505.565 89.5124 507.382 83.5065 511.014 79.3171C514.677 75.0983 519.95 72.989 526.835 72.989C533.719 72.989 538.934 75.0837 542.479 79.2731C546.024 83.4626 547.797 89.7907 547.797 98.2575V99.3122H513.871ZM526.923 78.8337C522.997 78.8337 519.891 80.1227 517.606 82.7009C515.321 85.2497 514.105 88.7653 513.959 93.2477H539.623C538.802 83.6384 534.569 78.8337 526.923 78.8337Z" fill="#0E4253"/>
<path d="M141.918 25.601C151.304 25.6336 158.774 33.4776 158.348 42.8546C157.945 51.7326 150.584 58.6974 141.698 58.6098L63.2805 57.8368C56.3914 57.7689 46.2672 58.6977 42.0105 64.1149C33.1469 75.3949 36.019 98.2824 35.1931 96.4185C34.3939 94.6148 12.4486 57.0196 11.0293 54.5887C10.9799 54.5041 10.9323 54.4233 10.8822 54.3391L10.221 53.2284C8.54417 50.4114 7.27142 47.3728 6.44006 44.2017L6.32274 43.7542L6.2794 43.5098C5.86852 41.1925 6.15546 38.8054 7.10379 36.6516C7.74901 34.7776 8.7308 33.0371 10.0009 31.5157L10.2384 31.2312C12.8863 28.3298 16.3813 26.3367 20.2268 25.5351L21.9116 25.1839L141.918 25.601Z" fill="url(#paint0_linear_2_1012)"/>
<path d="M96.7196 153.966C92.1509 161.92 81.9798 164.632 74.0569 160.01C66.1684 155.408 63.5068 145.281 68.1132 137.395L107.954 69.191C111.429 63.2411 115.64 53.99 113.042 47.6077C107.634 34.3203 86.4824 25.1604 88.5107 25.3663C90.4399 25.5621 132.617 25.19 136.737 25.1531C136.973 25.151 137.178 25.1516 137.414 25.1542L141.824 25.2032C143.941 25.2268 146.036 25.6385 148.005 26.4179C148.84 26.7486 149.648 27.1438 150.422 27.6L150.494 27.6421C151.86 28.4473 153.116 29.4261 154.231 30.5539L155.139 31.4714C156.267 32.8139 157.158 34.3388 157.775 35.9805L157.89 36.2862C159.324 40.6271 158.918 45.3659 156.768 49.4001L156.578 49.756L96.7196 153.966Z" fill="url(#paint1_linear_2_1012)"/>
<path d="M8.28056 49.9065C3.71926 41.9486 6.50976 31.7985 14.4982 27.2908C22.452 22.8026 32.5383 25.6151 37.022 33.5714L75.8009 102.385C79.1839 108.388 85.0458 116.692 91.8667 117.67C106.067 119.706 124.689 106.07 123.487 107.717C122.357 109.268 101.348 146.319 98.8832 150.667C98.7218 150.952 98.5631 151.223 98.3938 151.503L96.9914 153.824C96.0134 155.442 94.7896 156.899 93.3639 158.141L91.6909 159.547C89.8003 160.78 87.6896 161.638 85.4743 162.073L85.0288 162.16L84.8892 162.18C82.9373 162.461 80.9535 162.434 79.0099 162.101C74.5384 161.149 70.6518 158.407 68.2542 154.515L68.0427 154.172L8.28056 49.9065Z" fill="url(#paint2_linear_2_1012)"/>
<defs>
<linearGradient id="paint0_linear_2_1012" x1="158.966" y1="42.2501" x2="6.70008" y2="40.7491" gradientUnits="userSpaceOnUse">
<stop stop-color="#06161B"/>
<stop offset="1" stop-color="#074D63"/>
</linearGradient>
<linearGradient id="paint1_linear_2_1012" x1="74.1011" y1="160.036" x2="150.831" y2="28.5084" gradientUnits="userSpaceOnUse">
<stop stop-color="#071B21"/>
<stop offset="1" stop-color="#18A9D7"/>
</linearGradient>
<linearGradient id="paint2_linear_2_1012" x1="14.4537" y1="27.3159" x2="89.2866" y2="159.932" gradientUnits="userSpaceOnUse">
<stop stop-color="#0E4C60"/>
<stop offset="1" stop-color="#18A9D7"/>
</linearGradient>
</defs>
</svg>
